<svg preserveAspectRatio="none" overflow="visible" style="display: block;" width="25" height="25" viewBox="0 0 25 25" fill="none" xmlns="http://www.w3.org/2000/svg">
<g id="boxicons:phone-filled">
<rect width="25" height="25" rx="3" fill="#005488"/>
<path id="Vector" d="M16.6634 18.5H16.9037C17.1051 18.494 17.2935 18.398 17.4104 18.2421L18.8848 16.281C18.9823 16.149 19.0212 15.9871 18.9888 15.8252C18.9728 15.7462 18.9399 15.671 18.8919 15.6041C18.844 15.5371 18.7819 15.4797 18.7095 15.4353L15.5202 13.4742C15.2539 13.3122 14.8967 13.3482 14.6823 13.5641L13.4612 14.7816C12.9675 14.5117 12.1426 14.0259 11.4931 13.4262C10.8435 12.8264 10.3174 12.0648 10.0251 11.615L11.3437 10.4874C11.5775 10.2895 11.623 9.95967 11.4411 9.71378L9.3171 6.76904C9.21966 6.6371 9.07027 6.54114 8.90139 6.51115C8.72601 6.48117 8.55064 6.51115 8.40774 6.60711L6.28374 7.96253C6.11486 8.07048 6.01093 8.24441 6.00443 8.43033C5.98495 8.85615 5.90051 12.6525 9.11574 15.6152C12.0127 18.2901 15.6371 18.494 16.6634 18.494V18.5Z" fill="white"/>
</g>
</svg>
